# xmcd CD database file
#
# Track frame offsets:
#	150
#	104935
#	209539
#
# Disc length: 4375 seconds
#
# Revision: 1
# Processed by: cddbd v1.5.1PL0 Copyright (c) Steve Scherf et al.
# Submitted via: CDex 1.51
#
DISCID=2d111503
DTITLE=Keith Jarrett - Concerts - Munich 1981
DYEAR=1981
DGENRE=Jazz
TTITLE0=Part I
TTITLE1=Part II
TTITLE2=Part III
EXTD=YEAR: 1981
EXTT0=
EXTT1=
EXTT2=
PLAYORDER=
